<svg width="740" height="81" viewBox="0 0 740 81" fill="none" xmlns="http://www.w3.org/2000/svg">
<path d="M36.9634 29.904C36.2836 29.2242 35.4905 28.5444 34.6974 27.9779C33.9044 27.4114 32.998 27.5247 32.3182 28.0912L29.9389 30.4705C29.0326 31.4901 28.5794 32.7364 28.5794 33.8694C28.5794 34.5492 28.9193 35.0024 29.3724 35.3423C29.7123 35.5689 30.1655 35.9088 30.6187 36.2486C33.7911 39.5343 33.7911 44.6327 30.6187 47.805L22.9145 55.396C19.7421 58.6816 14.5304 58.6816 11.3581 55.396C8.18576 52.2236 8.29906 47.0119 11.4714 43.8396L12.9443 42.3667C13.5108 41.9135 13.6241 41.1204 13.3975 40.4407C12.7177 38.5146 12.3778 36.4752 12.2645 34.5492C12.2645 32.963 10.3384 32.1699 9.20544 33.3029L5.01343 37.4949C-1.67114 44.1795 -1.67114 55.1694 5.01343 61.8539C11.698 68.5385 22.6879 68.5385 29.3724 61.8539L36.9634 54.263C36.9634 54.263 36.9634 54.263 36.9634 54.1497C43.648 47.5784 43.7613 36.7018 36.9634 29.904Z" fill="#032273"/>
<path d="M28.2495 13.9292C34.9341 7.24463 45.9239 7.24463 52.6085 13.9292C59.2931 20.6138 59.2931 31.6037 52.6085 38.2882L48.4165 42.4802C47.2835 43.6132 45.3575 42.8201 45.3575 41.234C45.2442 39.3079 44.9043 37.2685 44.2245 35.3425C43.9979 34.6627 44.1112 33.8696 44.6777 33.4164L46.1505 31.9435C49.3229 28.7712 49.4362 23.5595 46.2638 20.3872C43.0915 17.1015 37.8798 17.1015 34.7075 20.3872L27.0032 27.9781C23.8309 31.1505 23.8309 36.2489 27.0032 39.5345C27.4564 39.8744 27.9096 40.2143 28.2495 40.4409C28.7027 40.7808 29.0426 41.234 29.0426 41.9138C29.0426 43.0467 28.5894 44.293 27.683 45.3127L25.3037 47.6919C24.624 48.2584 23.7176 48.3717 22.9245 47.8052C22.1314 47.2387 21.3383 46.559 20.6585 45.8792C13.8607 39.0813 13.974 28.2047 20.6585 21.6334V21.5202L28.2495 13.9292Z" fill="#00B377"/>
<path d="M85.6692 23H78.675V21.1606L80.4503 20.305V10.4233L78.675 9.56778V7.72833H85.6692V9.56778L83.9153 10.4233V20.305L85.6692 21.1606V23ZM94.3674 11.1078C95.5367 11.1078 96.4778 11.45 97.1908 12.1344C97.918 12.8046 98.2816 13.8883 98.2816 15.3856V23H94.8594V16.1769C94.8594 15.3356 94.7311 14.7082 94.4744 14.2947C94.232 13.8669 93.8399 13.6531 93.298 13.6531C92.471 13.6531 91.9149 13.9881 91.6297 14.6583C91.3445 15.3143 91.2019 16.2625 91.2019 17.5031V23H87.7797V11.3217H90.3677L90.8383 12.8189H90.988C91.2304 12.4196 91.5156 12.0988 91.8436 11.8564C92.1858 11.5997 92.5708 11.4144 92.9986 11.3003C93.4263 11.1719 93.8826 11.1078 94.3674 11.1078ZM106.153 20.6686C106.495 20.6686 106.809 20.633 107.094 20.5617C107.394 20.4904 107.7 20.4048 108.014 20.305V22.6792C107.658 22.8218 107.237 22.943 106.752 23.0428C106.282 23.1569 105.725 23.2139 105.084 23.2139C104.399 23.2139 103.786 23.0998 103.244 22.8717C102.717 22.6435 102.303 22.2514 102.004 21.6953C101.704 21.1249 101.555 20.3406 101.555 19.3425V13.7172H100.164V12.3697L101.833 11.3003L102.774 8.84055H104.977V11.3217H107.886V13.7172H104.977V19.3425C104.977 19.7845 105.084 20.1196 105.298 20.3478C105.512 20.5617 105.797 20.6686 106.153 20.6686ZM116.525 11.1078C116.711 11.1078 116.91 11.1149 117.124 11.1292C117.338 11.1434 117.502 11.1648 117.616 11.1933L117.338 14.1878C117.224 14.1593 117.074 14.1379 116.889 14.1236C116.703 14.0951 116.49 14.0808 116.247 14.0808C115.933 14.0808 115.613 14.1379 115.285 14.2519C114.971 14.3518 114.679 14.5157 114.408 14.7439C114.151 14.972 113.937 15.2786 113.766 15.6636C113.609 16.0344 113.531 16.4978 113.531 17.0539V23H110.108V11.3217H112.675L113.188 13.2894H113.36C113.573 12.8902 113.837 12.5266 114.151 12.1986C114.465 11.8706 114.821 11.6069 115.22 11.4072C115.634 11.2076 116.069 11.1078 116.525 11.1078ZM129.274 17.1394C129.274 18.1091 129.145 18.9718 128.889 19.7275C128.646 20.4832 128.29 21.1249 127.819 21.6525C127.349 22.1658 126.771 22.558 126.087 22.8289C125.417 23.0856 124.661 23.2139 123.82 23.2139C123.035 23.2139 122.308 23.0856 121.638 22.8289C120.968 22.558 120.39 22.1658 119.905 21.6525C119.435 21.1249 119.064 20.4832 118.793 19.7275C118.537 18.9718 118.408 18.1091 118.408 17.1394C118.408 15.8419 118.629 14.751 119.071 13.8669C119.513 12.9686 120.141 12.2842 120.954 11.8136C121.766 11.3431 122.743 11.1078 123.884 11.1078C124.939 11.1078 125.866 11.3431 126.664 11.8136C127.477 12.2842 128.112 12.9686 128.568 13.8669C129.039 14.751 129.274 15.8419 129.274 17.1394ZM121.895 17.1394C121.895 17.9094 121.959 18.5582 122.087 19.0858C122.23 19.5992 122.444 19.9913 122.729 20.2622C123.028 20.5189 123.406 20.6472 123.862 20.6472C124.333 20.6472 124.704 20.5189 124.975 20.2622C125.26 19.9913 125.467 19.5992 125.595 19.0858C125.723 18.5582 125.787 17.9094 125.787 17.1394C125.787 16.3694 125.723 15.7278 125.595 15.2144C125.467 14.7011 125.253 14.3161 124.953 14.0594C124.668 13.8028 124.297 13.6744 123.841 13.6744C123.142 13.6744 122.643 13.9668 122.344 14.5514C122.044 15.1218 121.895 15.9844 121.895 17.1394ZM135.067 23.2139C133.883 23.2139 132.914 22.7077 132.158 21.6953C131.402 20.6686 131.024 19.1643 131.024 17.1822C131.024 15.1859 131.409 13.6744 132.179 12.6478C132.949 11.6211 133.947 11.1078 135.174 11.1078C135.687 11.1078 136.129 11.1862 136.5 11.3431C136.885 11.4856 137.213 11.6853 137.484 11.9419C137.769 12.1986 138.011 12.4909 138.211 12.8189H138.297C138.254 12.5907 138.211 12.2628 138.168 11.835C138.125 11.393 138.104 10.9438 138.104 10.4875V6.74444H141.526V23H138.938L138.232 21.4814H138.104C137.919 21.7951 137.691 22.0874 137.42 22.3583C137.149 22.615 136.821 22.8218 136.436 22.9786C136.051 23.1355 135.594 23.2139 135.067 23.2139ZM136.372 20.6686C137.085 20.6686 137.591 20.4119 137.89 19.8986C138.204 19.371 138.361 18.5868 138.361 17.5458V17.2036C138.361 16.0629 138.218 15.1931 137.933 14.5942C137.648 13.9953 137.113 13.6958 136.329 13.6958C135.773 13.6958 135.323 14.0024 134.981 14.6156C134.653 15.2144 134.489 16.0843 134.489 17.225C134.489 18.3657 134.653 19.2284 134.981 19.8131C135.323 20.3834 135.787 20.6686 136.372 20.6686ZM154.865 11.3217V23H152.277L151.827 21.5028H151.635C151.407 21.902 151.114 22.23 150.758 22.4867C150.416 22.7291 150.031 22.9073 149.603 23.0214C149.175 23.1497 148.733 23.2139 148.277 23.2139C147.521 23.2139 146.851 23.0642 146.266 22.7647C145.682 22.4653 145.218 22.0019 144.876 21.3744C144.548 20.747 144.384 19.9343 144.384 18.9361V11.3217H147.806V18.1447C147.806 18.9718 147.927 19.5992 148.17 20.0269C148.412 20.4547 148.804 20.6686 149.346 20.6686C149.902 20.6686 150.33 20.5189 150.63 20.2194C150.929 19.92 151.136 19.4851 151.25 18.9147C151.378 18.3444 151.442 17.6456 151.442 16.8186V11.3217H154.865ZM162.544 23.2139C161.431 23.2139 160.476 23.0071 159.678 22.5936C158.879 22.1658 158.266 21.5099 157.838 20.6258C157.41 19.7418 157.196 18.6081 157.196 17.225C157.196 15.7991 157.432 14.6369 157.902 13.7386C158.387 12.8403 159.05 12.1772 159.891 11.7494C160.747 11.3217 161.724 11.1078 162.822 11.1078C163.535 11.1078 164.198 11.1862 164.811 11.3431C165.424 11.4999 165.937 11.6853 166.351 11.8992L165.346 14.2947C164.918 14.1094 164.526 13.9596 164.169 13.8456C163.827 13.7315 163.449 13.6744 163.036 13.6744C162.537 13.6744 162.109 13.8099 161.752 14.0808C161.41 14.3375 161.146 14.7296 160.961 15.2572C160.776 15.7706 160.683 16.4194 160.683 17.2036C160.683 17.9736 160.776 18.6153 160.961 19.1286C161.161 19.6277 161.431 20.0056 161.774 20.2622C162.13 20.5046 162.551 20.6258 163.036 20.6258C163.577 20.6258 164.091 20.5403 164.576 20.3692C165.075 20.1838 165.545 19.9343 165.987 19.6206V22.3369C165.517 22.6506 165.011 22.8717 164.469 23C163.941 23.1426 163.299 23.2139 162.544 23.2139ZM173.39 20.6686C173.733 20.6686 174.046 20.633 174.331 20.5617C174.631 20.4904 174.937 20.4048 175.251 20.305V22.6792C174.895 22.8218 174.474 22.943 173.989 23.0428C173.519 23.1569 172.963 23.2139 172.321 23.2139C171.636 23.2139 171.023 23.0998 170.481 22.8717C169.954 22.6435 169.54 22.2514 169.241 21.6953C168.941 21.1249 168.792 20.3406 168.792 19.3425V13.7172H167.401V12.3697L169.07 11.3003L170.011 8.84055H172.214V11.3217H175.123V13.7172H172.214V19.3425C172.214 19.7845 172.321 20.1196 172.535 20.3478C172.749 20.5617 173.034 20.6686 173.39 20.6686ZM180.768 11.3217V23H177.346V11.3217H180.768ZM179.078 6.74444C179.577 6.74444 180.005 6.85852 180.361 7.08667C180.718 7.30055 180.896 7.70694 180.896 8.30583C180.896 8.89046 180.718 9.29685 180.361 9.525C180.005 9.75315 179.577 9.86722 179.078 9.86722C178.565 9.86722 178.13 9.75315 177.773 9.525C177.417 9.29685 177.239 8.89046 177.239 8.30583C177.239 7.70694 177.417 7.30055 177.773 7.08667C178.13 6.85852 178.565 6.74444 179.078 6.74444ZM193.963 17.1394C193.963 18.1091 193.834 18.9718 193.578 19.7275C193.335 20.4832 192.979 21.1249 192.508 21.6525C192.038 22.1658 191.46 22.558 190.776 22.8289C190.106 23.0856 189.35 23.2139 188.508 23.2139C187.724 23.2139 186.997 23.0856 186.327 22.8289C185.657 22.558 185.079 22.1658 184.594 21.6525C184.124 21.1249 183.753 20.4832 183.482 19.7275C183.225 18.9718 183.097 18.1091 183.097 17.1394C183.097 15.8419 183.318 14.751 183.76 13.8669C184.202 12.9686 184.83 12.2842 185.642 11.8136C186.455 11.3431 187.432 11.1078 188.573 11.1078C189.628 11.1078 190.555 11.3431 191.353 11.8136C192.166 12.2842 192.801 12.9686 193.257 13.8669C193.727 14.751 193.963 15.8419 193.963 17.1394ZM186.583 17.1394C186.583 17.9094 186.648 18.5582 186.776 19.0858C186.919 19.5992 187.132 19.9913 187.418 20.2622C187.717 20.5189 188.095 20.6472 188.551 20.6472C189.022 20.6472 189.393 20.5189 189.663 20.2622C189.949 19.9913 190.155 19.5992 190.284 19.0858C190.412 18.5582 190.476 17.9094 190.476 17.1394C190.476 16.3694 190.412 15.7278 190.284 15.2144C190.155 14.7011 189.942 14.3161 189.642 14.0594C189.357 13.8028 188.986 13.6744 188.53 13.6744C187.831 13.6744 187.332 13.9668 187.033 14.5514C186.733 15.1218 186.583 15.9844 186.583 17.1394ZM202.878 11.1078C204.048 11.1078 204.989 11.45 205.702 12.1344C206.429 12.8046 206.793 13.8883 206.793 15.3856V23H203.37V16.1769C203.37 15.3356 203.242 14.7082 202.985 14.2947C202.743 13.8669 202.351 13.6531 201.809 13.6531C200.982 13.6531 200.426 13.9881 200.141 14.6583C199.855 15.3143 199.713 16.2625 199.713 17.5031V23H196.291V11.3217H198.879L199.349 12.8189H199.499C199.741 12.4196 200.027 12.0988 200.355 11.8564C200.697 11.5997 201.082 11.4144 201.51 11.3003C201.937 11.1719 202.394 11.1078 202.878 11.1078ZM219.886 20.6686C220.228 20.6686 220.542 20.633 220.827 20.5617C221.127 20.4904 221.433 20.4048 221.747 20.305V22.6792C221.39 22.8218 220.97 22.943 220.485 23.0428C220.014 23.1569 219.458 23.2139 218.817 23.2139C218.132 23.2139 217.519 23.0998 216.977 22.8717C216.45 22.6435 216.036 22.2514 215.737 21.6953C215.437 21.1249 215.288 20.3406 215.288 19.3425V13.7172H213.897V12.3697L215.566 11.3003L216.507 8.84055H218.71V11.3217H221.619V13.7172H218.71V19.3425C218.71 19.7845 218.817 20.1196 219.031 20.3478C219.244 20.5617 219.53 20.6686 219.886 20.6686ZM234.129 17.1394C234.129 18.1091 234.001 18.9718 233.744 19.7275C233.502 20.4832 233.146 21.1249 232.675 21.6525C232.204 22.1658 231.627 22.558 230.943 22.8289C230.272 23.0856 229.517 23.2139 228.675 23.2139C227.891 23.2139 227.164 23.0856 226.494 22.8289C225.823 22.558 225.246 22.1658 224.761 21.6525C224.291 21.1249 223.92 20.4832 223.649 19.7275C223.392 18.9718 223.264 18.1091 223.264 17.1394C223.264 15.8419 223.485 14.751 223.927 13.8669C224.369 12.9686 224.996 12.2842 225.809 11.8136C226.622 11.3431 227.599 11.1078 228.739 11.1078C229.795 11.1078 230.722 11.3431 231.52 11.8136C232.333 12.2842 232.967 12.9686 233.424 13.8669C233.894 14.751 234.129 15.8419 234.129 17.1394ZM226.75 17.1394C226.75 17.9094 226.814 18.5582 226.943 19.0858C227.085 19.5992 227.299 19.9913 227.584 20.2622C227.884 20.5189 228.262 20.6472 228.718 20.6472C229.189 20.6472 229.559 20.5189 229.83 20.2622C230.115 19.9913 230.322 19.5992 230.451 19.0858C230.579 18.5582 230.643 17.9094 230.643 17.1394C230.643 16.3694 230.579 15.7278 230.451 15.2144C230.322 14.7011 230.108 14.3161 229.809 14.0594C229.524 13.8028 229.153 13.6744 228.697 13.6744C227.998 13.6744 227.499 13.9668 227.199 14.5514C226.9 15.1218 226.75 15.9844 226.75 17.1394Z" fill="black"/>
<path d="M96.9582 57.5905C96.9582 59.3872 96.5589 60.9557 95.7604 62.2961C94.9619 63.6365 93.7499 64.6774 92.1243 65.4189C90.5273 66.1318 88.5025 66.4883 86.0499 66.4883C84.9091 66.4883 83.8539 66.417 82.8843 66.2744C81.9147 66.1318 81.0021 65.9322 80.1465 65.6755C79.291 65.3904 78.4354 65.0481 77.5799 64.6489V58.6172C79.0343 59.2446 80.5173 59.8293 82.0288 60.3711C83.5688 60.8844 85.0232 61.1411 86.3921 61.1411C87.2762 61.1411 87.9891 60.9985 88.531 60.7133C89.0728 60.4281 89.4721 60.0431 89.7288 59.5583C89.9854 59.0735 90.1138 58.5174 90.1138 57.89C90.1138 57.12 89.8999 56.4641 89.4721 55.9222C89.0728 55.3804 88.4739 54.8813 87.6754 54.425C86.8769 53.9402 85.893 53.4554 84.7238 52.9705C83.8682 52.5998 83.0269 52.172 82.1999 51.6872C81.3728 51.2024 80.6314 50.6178 79.9754 49.9333C79.3195 49.2204 78.7919 48.3648 78.3926 47.3667C78.0219 46.3685 77.8365 45.1707 77.8365 43.7733C77.8365 41.9481 78.2643 40.3939 79.1199 39.1105C79.9754 37.7987 81.1732 36.8005 82.7132 36.1161C84.2532 35.4317 86.0499 35.0894 88.1032 35.0894C89.7858 35.0894 91.3401 35.2748 92.766 35.6455C94.2204 36.0163 95.6036 36.5439 96.9154 37.2283L94.7338 42.2761C93.4789 41.7057 92.2812 41.2637 91.1404 40.95C90.0282 40.6363 88.9445 40.4794 87.8893 40.4794C87.1764 40.4794 86.5775 40.6078 86.0926 40.8644C85.6078 41.1211 85.2371 41.4776 84.9804 41.9339C84.7523 42.3902 84.6382 42.932 84.6382 43.5594C84.6382 44.2724 84.8236 44.8855 85.1943 45.3989C85.5936 45.8837 86.2067 46.3685 87.0338 46.8533C87.8608 47.3096 88.916 47.8657 90.1993 48.5217C91.6252 49.2346 92.8373 49.9904 93.8354 50.7889C94.8621 51.5589 95.6321 52.4857 96.1454 53.5694C96.6873 54.6531 96.9582 55.9935 96.9582 57.5905ZM121.91 54.3394C121.91 56.2787 121.654 58.0041 121.14 59.5155C120.656 61.027 119.943 62.3104 119.001 63.3655C118.06 64.3922 116.905 65.1765 115.536 65.7183C114.196 66.2317 112.685 66.4883 111.002 66.4883C109.433 66.4883 107.979 66.2317 106.639 65.7183C105.298 65.1765 104.143 64.3922 103.174 63.3655C102.233 62.3104 101.491 61.027 100.949 59.5155C100.436 58.0041 100.179 56.2787 100.179 54.3394C100.179 51.7442 100.621 49.5626 101.505 47.7944C102.389 45.9978 103.644 44.6289 105.27 43.6878C106.895 42.7467 108.849 42.2761 111.13 42.2761C113.241 42.2761 115.094 42.7467 116.691 43.6878C118.317 44.6289 119.586 45.9978 120.499 47.7944C121.44 49.5626 121.91 51.7442 121.91 54.3394ZM107.152 54.3394C107.152 55.8794 107.28 57.177 107.537 58.2322C107.822 59.2589 108.25 60.0431 108.82 60.585C109.419 61.0983 110.175 61.355 111.088 61.355C112.029 61.355 112.77 61.0983 113.312 60.585C113.882 60.0431 114.296 59.2589 114.553 58.2322C114.809 57.177 114.938 55.8794 114.938 54.3394C114.938 52.7994 114.809 51.5161 114.553 50.4894C114.296 49.4628 113.868 48.6928 113.269 48.1794C112.699 47.6661 111.957 47.4094 111.045 47.4094C109.647 47.4094 108.649 47.9941 108.05 49.1633C107.451 50.3041 107.152 52.0294 107.152 54.3394ZM139.443 47.495H134.48V66.0605H127.636V47.495H124.513V44.415L127.721 42.7039V40.9928C127.721 38.9965 128.007 37.4565 128.577 36.3728C129.147 35.2605 130.003 34.4763 131.144 34.02C132.284 33.5637 133.696 33.3355 135.379 33.3355C136.548 33.3355 137.603 33.4354 138.544 33.635C139.485 33.8346 140.355 34.0628 141.154 34.3194L139.571 38.9822C139.143 38.8396 138.673 38.7113 138.159 38.5972C137.674 38.4546 137.133 38.3833 136.534 38.3833C135.821 38.3833 135.293 38.6542 134.951 39.1961C134.637 39.738 134.48 40.4224 134.48 41.2494V42.7039H139.443V47.495ZM152.703 61.3978C153.387 61.3978 154.015 61.3265 154.585 61.1839C155.184 61.0413 155.797 60.8702 156.424 60.6705V65.4189C155.711 65.7041 154.87 65.9465 153.9 66.1461C152.959 66.3743 151.847 66.4883 150.564 66.4883C149.195 66.4883 147.969 66.2602 146.885 65.8039C145.83 65.3476 145.003 64.5633 144.404 63.4511C143.805 62.3104 143.505 60.7418 143.505 58.7455V47.495H140.725V44.8L144.062 42.6611L145.944 37.7417H150.35V42.7039H156.168V47.495H150.35V58.7455C150.35 59.6296 150.564 60.2998 150.992 60.7561C151.419 61.1839 151.99 61.3978 152.703 61.3978ZM176.527 53.7405C176.441 53.2557 176.341 52.7709 176.227 52.2861C176.142 51.7728 176.042 51.2737 175.928 50.7889C175.842 50.3041 175.771 49.8335 175.714 49.3772C175.657 48.8924 175.6 48.4361 175.543 48.0083H175.414C175.386 48.4361 175.329 48.8924 175.243 49.3772C175.186 49.862 175.115 50.3611 175.029 50.8744C174.944 51.3592 174.844 51.8583 174.73 52.3717C174.644 52.885 174.545 53.3983 174.43 53.9117L171.735 66.0605H163.736L158.132 42.7039H164.805L167.03 54.6389C167.172 55.3518 167.301 56.0791 167.415 56.8205C167.529 57.5335 167.629 58.2322 167.714 58.9167C167.828 59.5726 167.9 60.1715 167.928 60.7133H168.099C168.156 60.3141 168.228 59.8292 168.313 59.2589C168.399 58.6885 168.484 58.1181 168.57 57.5478C168.684 56.9489 168.784 56.407 168.869 55.9222C168.955 55.4374 169.026 55.0809 169.083 54.8528L171.778 42.7039H179.222L181.831 54.81C181.917 55.2092 182.016 55.7796 182.13 56.5211C182.245 57.2341 182.344 57.9755 182.43 58.7455C182.544 59.5155 182.615 60.1715 182.644 60.7133H182.772C182.829 60.1715 182.9 59.5726 182.986 58.9167C183.1 58.2607 183.214 57.562 183.328 56.8205C183.471 56.0791 183.613 55.3518 183.756 54.6389L186.237 42.7039H192.739L186.964 66.0605H179.008L176.527 53.7405ZM206.005 42.2333C208.885 42.2333 211.11 42.9178 212.678 44.2867C214.275 45.627 215.074 47.6946 215.074 50.4894V66.0605H210.325L208.999 62.895H208.828C208.201 63.722 207.559 64.4065 206.903 64.9483C206.247 65.4902 205.491 65.8752 204.636 66.1033C203.78 66.36 202.739 66.4883 201.513 66.4883C200.23 66.4883 199.075 66.2317 198.048 65.7183C197.05 65.1765 196.251 64.3637 195.653 63.28C195.054 62.1678 194.754 60.7704 194.754 59.0878C194.754 56.6067 195.567 54.7815 197.193 53.6122C198.847 52.4144 201.271 51.7585 204.465 51.6444L208.229 51.5161V50.4894C208.229 49.2631 207.958 48.3648 207.416 47.7944C206.875 47.2241 206.133 46.9389 205.192 46.9389C204.222 46.9389 203.21 47.11 202.155 47.4522C201.1 47.7659 200.044 48.1652 198.989 48.65L196.893 44.3294C198.148 43.6735 199.531 43.1602 201.043 42.7894C202.583 42.4187 204.237 42.2333 206.005 42.2333ZM206.261 55.3233C204.579 55.3804 203.395 55.7511 202.711 56.4355C202.055 57.12 201.727 58.0183 201.727 59.1305C201.727 60.1002 201.955 60.7989 202.411 61.2267C202.896 61.6259 203.524 61.8255 204.294 61.8255C205.377 61.8255 206.304 61.4263 207.074 60.6278C207.873 59.8007 208.272 58.6457 208.272 57.1628V55.2378L206.261 55.3233ZM233.603 42.2761C233.974 42.2761 234.373 42.2904 234.801 42.3189C235.228 42.3474 235.556 42.3902 235.784 42.4472L235.228 48.4361C235 48.3791 234.701 48.3363 234.33 48.3078C233.959 48.2507 233.532 48.2222 233.047 48.2222C232.419 48.2222 231.778 48.3363 231.122 48.5644C230.494 48.7641 229.91 49.092 229.368 49.5483C228.854 50.0046 228.427 50.6178 228.084 51.3878C227.771 52.1292 227.614 53.0561 227.614 54.1683V66.0605H220.769V42.7039H225.903L226.929 46.6394H227.272C227.699 45.8409 228.227 45.1137 228.854 44.4578C229.482 43.8018 230.195 43.2742 230.993 42.875C231.82 42.4757 232.69 42.2761 233.603 42.2761ZM248.063 42.2761C250.145 42.2761 251.942 42.6896 253.453 43.5167C254.965 44.3437 256.134 45.5415 256.961 47.11C257.788 48.6785 258.202 50.6035 258.202 52.885V55.965H244.299C244.356 57.7617 244.812 59.1733 245.668 60.2C246.552 61.2267 247.807 61.74 249.432 61.74C250.858 61.74 252.142 61.5974 253.282 61.3122C254.452 60.9985 255.649 60.528 256.876 59.9005V64.82C255.82 65.3904 254.665 65.8039 253.411 66.0605C252.184 66.3457 250.659 66.4883 248.833 66.4883C246.609 66.4883 244.627 66.0605 242.887 65.205C241.176 64.3209 239.822 62.9948 238.823 61.2267C237.854 59.4585 237.369 57.2341 237.369 54.5533C237.369 51.8155 237.811 49.5483 238.695 47.7517C239.608 45.9265 240.862 44.5576 242.459 43.645C244.085 42.7324 245.953 42.2761 248.063 42.2761ZM248.192 46.8105C247.165 46.8105 246.309 47.2098 245.625 48.0083C244.941 48.8068 244.541 50.0474 244.427 51.73H251.913C251.913 50.7889 251.771 49.9476 251.486 49.2061C251.2 48.4646 250.787 47.88 250.245 47.4522C249.703 47.0244 249.019 46.8105 248.192 46.8105ZM291.547 57.5905C291.547 59.3872 291.148 60.9557 290.349 62.2961C289.551 63.6365 288.339 64.6774 286.713 65.4189C285.116 66.1318 283.091 66.4883 280.639 66.4883C279.498 66.4883 278.443 66.417 277.473 66.2744C276.503 66.1318 275.591 65.9322 274.735 65.6755C273.88 65.3904 273.024 65.0481 272.169 64.6489V58.6172C273.623 59.2446 275.106 59.8293 276.618 60.3711C278.158 60.8844 279.612 61.1411 280.981 61.1411C281.865 61.1411 282.578 60.9985 283.12 60.7133C283.662 60.4281 284.061 60.0431 284.318 59.5583C284.574 59.0735 284.703 58.5174 284.703 57.89C284.703 57.12 284.489 56.4641 284.061 55.9222C283.662 55.3804 283.063 54.8813 282.264 54.425C281.466 53.9402 280.482 53.4554 279.313 52.9705C278.457 52.5998 277.616 52.172 276.789 51.6872C275.962 51.2024 275.22 50.6178 274.564 49.9333C273.908 49.2204 273.381 48.3648 272.981 47.3667C272.611 46.3685 272.425 45.1707 272.425 43.7733C272.425 41.9481 272.853 40.3939 273.709 39.1105C274.564 37.7987 275.762 36.8005 277.302 36.1161C278.842 35.4317 280.639 35.0894 282.692 35.0894C284.375 35.0894 285.929 35.2748 287.355 35.6455C288.809 36.0163 290.192 36.5439 291.504 37.2283L289.323 42.2761C288.068 41.7057 286.87 41.2637 285.729 40.95C284.617 40.6363 283.533 40.4794 282.478 40.4794C281.765 40.4794 281.166 40.6078 280.681 40.8644C280.197 41.1211 279.826 41.4776 279.569 41.9339C279.341 42.3902 279.227 42.932 279.227 43.5594C279.227 44.2724 279.412 44.8855 279.783 45.3989C280.182 45.8837 280.795 46.3685 281.623 46.8533C282.45 47.3096 283.505 47.8657 284.788 48.5217C286.214 49.2346 287.426 49.9904 288.424 50.7889C289.451 51.5589 290.221 52.4857 290.734 53.5694C291.276 54.6531 291.547 55.9935 291.547 57.5905ZM316.799 42.7039V66.0605H311.622L310.724 63.0661H310.339C309.883 63.8646 309.298 64.5205 308.585 65.0339C307.901 65.5187 307.131 65.8752 306.275 66.1033C305.42 66.36 304.536 66.4883 303.623 66.4883C302.112 66.4883 300.771 66.1889 299.602 65.59C298.433 64.9911 297.506 64.0643 296.821 62.8094C296.165 61.5546 295.837 59.9291 295.837 57.9328V42.7039H302.682V56.35C302.682 58.0041 302.924 59.2589 303.409 60.1144C303.894 60.97 304.678 61.3978 305.762 61.3978C306.874 61.3978 307.73 61.0983 308.329 60.4994C308.927 59.9005 309.341 59.0307 309.569 57.89C309.826 56.7493 309.954 55.3518 309.954 53.6978V42.7039H316.799ZM335.536 42.2761C337.989 42.2761 339.942 43.3028 341.397 45.3561C342.88 47.3809 343.621 50.3754 343.621 54.3394C343.621 56.9917 343.265 59.2304 342.552 61.0555C341.839 62.8522 340.855 64.2068 339.6 65.1194C338.345 66.032 336.905 66.4883 335.28 66.4883C334.253 66.4883 333.369 66.3457 332.627 66.0605C331.886 65.7754 331.258 65.4046 330.745 64.9483C330.26 64.492 329.833 64.0072 329.462 63.4939H329.162C329.248 64.0357 329.319 64.6061 329.376 65.205C329.433 65.7754 329.462 66.3457 329.462 66.9161V76.3272H322.617V42.7039H328.178L329.162 45.7411H329.462C329.833 45.1137 330.289 44.5433 330.831 44.03C331.373 43.4881 332.028 43.0604 332.798 42.7467C333.568 42.433 334.481 42.2761 335.536 42.2761ZM333.098 47.3667C332.214 47.3667 331.501 47.5948 330.959 48.0511C330.417 48.5074 330.032 49.2061 329.804 50.1472C329.576 51.0598 329.462 52.2148 329.462 53.6122V54.2967C329.462 55.8081 329.576 57.0915 329.804 58.1467C330.032 59.1733 330.417 59.9576 330.959 60.4994C331.501 61.0413 332.242 61.3122 333.183 61.3122C333.953 61.3122 334.595 61.0413 335.108 60.4994C335.622 59.9576 336.007 59.1591 336.263 58.1039C336.52 57.0487 336.648 55.7654 336.648 54.2539C336.648 51.9724 336.349 50.2613 335.75 49.1205C335.18 47.9513 334.296 47.3667 333.098 47.3667ZM361.186 42.2761C363.639 42.2761 365.592 43.3028 367.047 45.3561C368.53 47.3809 369.271 50.3754 369.271 54.3394C369.271 56.9917 368.915 59.2304 368.202 61.0555C367.489 62.8522 366.505 64.2068 365.25 65.1194C363.995 66.032 362.555 66.4883 360.93 66.4883C359.903 66.4883 359.019 66.3457 358.277 66.0605C357.536 65.7754 356.908 65.4046 356.395 64.9483C355.91 64.492 355.482 64.0072 355.112 63.4939H354.812C354.898 64.0357 354.969 64.6061 355.026 65.205C355.083 65.7754 355.112 66.3457 355.112 66.9161V76.3272H348.267V42.7039H353.828L354.812 45.7411H355.112C355.482 45.1137 355.939 44.5433 356.481 44.03C357.022 43.4881 357.678 43.0604 358.448 42.7467C359.218 42.433 360.131 42.2761 361.186 42.2761ZM358.748 47.3667C357.864 47.3667 357.151 47.5948 356.609 48.0511C356.067 48.5074 355.682 49.2061 355.454 50.1472C355.226 51.0598 355.112 52.2148 355.112 53.6122V54.2967C355.112 55.8081 355.226 57.0915 355.454 58.1467C355.682 59.1733 356.067 59.9576 356.609 60.4994C357.151 61.0413 357.892 61.3122 358.833 61.3122C359.603 61.3122 360.245 61.0413 360.758 60.4994C361.272 59.9576 361.657 59.1591 361.913 58.1039C362.17 57.0487 362.298 55.7654 362.298 54.2539C362.298 51.9724 361.999 50.2613 361.4 49.1205C360.83 47.9513 359.946 47.3667 358.748 47.3667ZM380.762 66.0605H373.917V33.5494H380.762V66.0605ZM383.666 42.7039H390.981L394.874 55.8367C395.017 56.2359 395.116 56.6637 395.173 57.12C395.259 57.5478 395.316 57.9898 395.345 58.4461C395.402 58.9024 395.444 59.3872 395.473 59.9005H395.644C395.701 59.1591 395.772 58.4604 395.858 57.8044C395.972 57.12 396.129 56.4641 396.328 55.8367L400.221 42.7039H407.408L398.253 69.0122C397.683 70.6378 396.956 71.9924 396.072 73.0761C395.188 74.1598 394.118 74.9726 392.863 75.5144C391.609 76.0563 390.14 76.3272 388.457 76.3272C387.773 76.3272 387.174 76.2844 386.661 76.1989C386.176 76.1418 385.748 76.0705 385.377 75.985V70.9372C385.663 70.9943 386.005 71.0513 386.404 71.1083C386.832 71.1654 387.274 71.1939 387.73 71.1939C388.586 71.1939 389.299 71.0085 389.869 70.6378C390.439 70.267 390.91 69.768 391.281 69.1405C391.651 68.5131 391.922 67.8144 392.093 67.0444L392.393 65.8894L383.666 42.7039ZM433.624 40.4794C432.598 40.4794 431.671 40.7218 430.844 41.2067C430.045 41.6915 429.361 42.3902 428.79 43.3028C428.22 44.1868 427.792 45.2705 427.507 46.5539C427.222 47.8372 427.079 49.2774 427.079 50.8744C427.079 53.0418 427.322 54.8955 427.807 56.4355C428.291 57.947 429.033 59.102 430.031 59.9005C431.029 60.6991 432.298 61.0983 433.838 61.0983C435.065 61.0983 436.262 60.9557 437.432 60.6705C438.629 60.3854 439.87 59.9861 441.153 59.4728V64.9055C439.898 65.4474 438.629 65.8467 437.346 66.1033C436.063 66.36 434.665 66.4883 433.154 66.4883C430.102 66.4883 427.607 65.8467 425.668 64.5633C423.728 63.2515 422.288 61.4263 421.347 59.0878C420.435 56.7207 419.978 53.9687 419.978 50.8317C419.978 48.5217 420.278 46.4113 420.877 44.5005C421.475 42.5613 422.36 40.893 423.529 39.4955C424.698 38.0981 426.124 37.0144 427.807 36.2444C429.518 35.4744 431.471 35.0894 433.667 35.0894C435.093 35.0894 436.59 35.2891 438.159 35.6883C439.756 36.0591 441.139 36.5724 442.308 37.2283L440.127 42.49C439.071 41.9481 438.002 41.4776 436.918 41.0783C435.863 40.6791 434.765 40.4794 433.624 40.4794ZM453.367 40.18C453.367 41.3207 453.324 42.4187 453.239 43.4739C453.182 44.5291 453.125 45.2705 453.068 45.6983H453.41C453.895 44.8998 454.436 44.2581 455.035 43.7733C455.663 43.26 456.361 42.8892 457.131 42.6611C457.901 42.4044 458.728 42.2761 459.613 42.2761C461.153 42.2761 462.507 42.5755 463.676 43.1744C464.874 43.7733 465.815 44.7002 466.5 45.955C467.184 47.2098 467.526 48.8354 467.526 50.8317V66.0605H460.639V52.4144C460.639 50.7318 460.383 49.477 459.869 48.65C459.384 47.7944 458.614 47.3667 457.559 47.3667C456.504 47.3667 455.663 47.6661 455.035 48.265C454.408 48.8639 453.966 49.7337 453.709 50.8744C453.481 52.0152 453.367 53.4126 453.367 55.0667V66.0605H446.523V33.5494H453.367V40.18ZM483.141 42.2333C486.022 42.2333 488.246 42.9178 489.815 44.2867C491.412 45.627 492.21 47.6946 492.21 50.4894V66.0605H487.462L486.136 62.895H485.965C485.337 63.722 484.696 64.4065 484.04 64.9483C483.384 65.4902 482.628 65.8752 481.772 66.1033C480.917 66.36 479.876 66.4883 478.65 66.4883C477.366 66.4883 476.211 66.2317 475.185 65.7183C474.186 65.1765 473.388 64.3637 472.789 63.28C472.19 62.1678 471.891 60.7704 471.891 59.0878C471.891 56.6067 472.704 54.7815 474.329 53.6122C475.983 52.4144 478.407 51.7585 481.601 51.6444L485.366 51.5161V50.4894C485.366 49.2631 485.095 48.3648 484.553 47.7944C484.011 47.2241 483.27 46.9389 482.329 46.9389C481.359 46.9389 480.346 47.11 479.291 47.4522C478.236 47.7659 477.181 48.1652 476.126 48.65L474.03 44.3294C475.284 43.6735 476.668 43.1602 478.179 42.7894C479.719 42.4187 481.373 42.2333 483.141 42.2333ZM483.398 55.3233C481.715 55.3804 480.532 55.7511 479.847 56.4355C479.191 57.12 478.864 58.0183 478.864 59.1305C478.864 60.1002 479.092 60.7989 479.548 61.2267C480.033 61.6259 480.66 61.8255 481.43 61.8255C482.514 61.8255 483.441 61.4263 484.211 60.6278C485.009 59.8007 485.409 58.6457 485.409 57.1628V55.2378L483.398 55.3233ZM504.75 42.7039V66.0605H497.906V42.7039H504.75ZM501.371 33.5494C502.369 33.5494 503.225 33.7776 503.938 34.2339C504.651 34.6617 505.007 35.4744 505.007 36.6722C505.007 37.8415 504.651 38.6542 503.938 39.1105C503.225 39.5668 502.369 39.795 501.371 39.795C500.344 39.795 499.474 39.5668 498.762 39.1105C498.049 38.6542 497.692 37.8415 497.692 36.6722C497.692 35.4744 498.049 34.6617 498.762 34.2339C499.474 33.7776 500.344 33.5494 501.371 33.5494ZM523.739 42.2761C526.078 42.2761 527.96 42.9605 529.386 44.3294C530.841 45.6698 531.568 47.8372 531.568 50.8317V66.0605H524.723V52.4144C524.723 50.7318 524.467 49.477 523.953 48.65C523.468 47.7944 522.684 47.3667 521.601 47.3667C519.946 47.3667 518.834 48.0368 518.264 49.3772C517.693 50.6891 517.408 52.5855 517.408 55.0667V66.0605H510.564V42.7039H515.74L516.681 45.6983H516.981C517.465 44.8998 518.036 44.2581 518.692 43.7733C519.376 43.26 520.146 42.8892 521.002 42.6611C521.857 42.4044 522.77 42.2761 523.739 42.2761ZM565.968 57.5905C565.968 59.3872 565.569 60.9557 564.77 62.2961C563.972 63.6365 562.76 64.6774 561.134 65.4189C559.537 66.1318 557.512 66.4883 555.06 66.4883C553.919 66.4883 552.864 66.417 551.894 66.2744C550.925 66.1318 550.012 65.9322 549.156 65.6755C548.301 65.3904 547.445 65.0481 546.59 64.6489V58.6172C548.044 59.2446 549.527 59.8293 551.039 60.3711C552.579 60.8844 554.033 61.1411 555.402 61.1411C556.286 61.1411 556.999 60.9985 557.541 60.7133C558.083 60.4281 558.482 60.0431 558.739 59.5583C558.995 59.0735 559.124 58.5174 559.124 57.89C559.124 57.12 558.91 56.4641 558.482 55.9222C558.083 55.3804 557.484 54.8813 556.685 54.425C555.887 53.9402 554.903 53.4554 553.734 52.9705C552.878 52.5998 552.037 52.172 551.21 51.6872C550.383 51.2024 549.641 50.6178 548.985 49.9333C548.329 49.2204 547.802 48.3648 547.403 47.3667C547.032 46.3685 546.846 45.1707 546.846 43.7733C546.846 41.9481 547.274 40.3939 548.13 39.1105C548.985 37.7987 550.183 36.8005 551.723 36.1161C553.263 35.4317 555.06 35.0894 557.113 35.0894C558.796 35.0894 560.35 35.2748 561.776 35.6455C563.23 36.0163 564.613 36.5439 565.925 37.2283L563.744 42.2761C562.489 41.7057 561.291 41.2637 560.15 40.95C559.038 40.6363 557.954 40.4794 556.899 40.4794C556.186 40.4794 555.587 40.6078 555.103 40.8644C554.618 41.1211 554.247 41.4776 553.99 41.9339C553.762 42.3902 553.648 42.932 553.648 43.5594C553.648 44.2724 553.833 44.8855 554.204 45.3989C554.603 45.8837 555.217 46.3685 556.044 46.8533C556.871 47.3096 557.926 47.8657 559.209 48.5217C560.635 49.2346 561.847 49.9904 562.845 50.7889C563.872 51.5589 564.642 52.4857 565.155 53.5694C565.697 54.6531 565.968 55.9935 565.968 57.5905ZM579.884 42.2761C581.965 42.2761 583.762 42.6896 585.274 43.5167C586.785 44.3437 587.954 45.5415 588.781 47.11C589.608 48.6785 590.022 50.6035 590.022 52.885V55.965H576.119C576.176 57.7617 576.632 59.1733 577.488 60.2C578.372 61.2267 579.627 61.74 581.252 61.74C582.678 61.74 583.962 61.5974 585.102 61.3122C586.272 60.9985 587.47 60.528 588.696 59.9005V64.82C587.641 65.3904 586.486 65.8039 585.231 66.0605C584.005 66.3457 582.479 66.4883 580.654 66.4883C578.429 66.4883 576.447 66.0605 574.707 65.205C572.996 64.3209 571.642 62.9948 570.644 61.2267C569.674 59.4585 569.189 57.2341 569.189 54.5533C569.189 51.8155 569.631 49.5483 570.515 47.7517C571.428 45.9265 572.683 44.5576 574.28 43.645C575.905 42.7324 577.773 42.2761 579.884 42.2761ZM580.012 46.8105C578.985 46.8105 578.13 47.2098 577.445 48.0083C576.761 48.8068 576.362 50.0474 576.247 51.73H583.734C583.734 50.7889 583.591 49.9476 583.306 49.2061C583.021 48.4646 582.607 47.88 582.065 47.4522C581.523 47.0244 580.839 46.8105 580.012 46.8105ZM604.197 66.4883C601.972 66.4883 600.062 66.0748 598.465 65.2478C596.867 64.3922 595.641 63.0804 594.786 61.3122C593.93 59.5441 593.502 57.2768 593.502 54.5105C593.502 51.6587 593.973 49.3344 594.914 47.5378C595.884 45.7411 597.21 44.415 598.892 43.5594C600.603 42.7039 602.557 42.2761 604.753 42.2761C606.179 42.2761 607.505 42.433 608.731 42.7467C609.957 43.0604 610.984 43.4311 611.811 43.8589L609.801 48.65C608.945 48.2792 608.161 47.9798 607.448 47.7517C606.763 47.5235 606.008 47.4094 605.181 47.4094C604.182 47.4094 603.327 47.6804 602.614 48.2222C601.93 48.7355 601.402 49.5198 601.031 50.575C600.66 51.6017 600.475 52.8992 600.475 54.4678C600.475 56.0078 600.66 57.2911 601.031 58.3178C601.43 59.3159 601.972 60.0717 602.657 60.585C603.37 61.0698 604.211 61.3122 605.181 61.3122C606.264 61.3122 607.291 61.1411 608.261 60.7989C609.259 60.4281 610.2 59.9291 611.084 59.3017V64.7344C610.143 65.3618 609.13 65.8039 608.047 66.0605C606.992 66.3457 605.708 66.4883 604.197 66.4883ZM636.713 42.7039V66.0605H631.537L630.638 63.0661H630.253C629.797 63.8646 629.212 64.5205 628.5 65.0339C627.815 65.5187 627.045 65.8752 626.19 66.1033C625.334 66.36 624.45 66.4883 623.537 66.4883C622.026 66.4883 620.685 66.1889 619.516 65.59C618.347 64.9911 617.42 64.0643 616.736 62.8094C616.08 61.5546 615.752 59.9291 615.752 57.9328V42.7039H622.596V56.35C622.596 58.0041 622.839 59.2589 623.323 60.1144C623.808 60.97 624.592 61.3978 625.676 61.3978C626.788 61.3978 627.644 61.0983 628.243 60.4994C628.842 59.9005 629.255 59.0307 629.483 57.89C629.74 56.7493 629.868 55.3518 629.868 53.6978V42.7039H636.713ZM655.365 42.2761C655.736 42.2761 656.135 42.2904 656.563 42.3189C656.991 42.3474 657.318 42.3902 657.547 42.4472L656.991 48.4361C656.762 48.3791 656.463 48.3363 656.092 48.3078C655.721 48.2507 655.294 48.2222 654.809 48.2222C654.181 48.2222 653.54 48.3363 652.884 48.5644C652.256 48.7641 651.672 49.092 651.13 49.5483C650.617 50.0046 650.189 50.6178 649.847 51.3878C649.533 52.1292 649.376 53.0561 649.376 54.1683V66.0605H642.532V42.7039H647.665L648.692 46.6394H649.034C649.462 45.8409 649.989 45.1137 650.617 44.4578C651.244 43.8018 651.957 43.2742 652.756 42.875C653.583 42.4757 654.452 42.2761 655.365 42.2761ZM667.924 42.7039V66.0605H661.08V42.7039H667.924ZM664.545 33.5494C665.543 33.5494 666.398 33.7776 667.111 34.2339C667.824 34.6617 668.181 35.4744 668.181 36.6722C668.181 37.8415 667.824 38.6542 667.111 39.1105C666.398 39.5668 665.543 39.795 664.545 39.795C663.518 39.795 662.648 39.5668 661.935 39.1105C661.222 38.6542 660.866 37.8415 660.866 36.6722C660.866 35.4744 661.222 34.6617 661.935 34.2339C662.648 33.7776 663.518 33.5494 664.545 33.5494ZM683.79 61.3978C684.475 61.3978 685.102 61.3265 685.673 61.1839C686.272 61.0413 686.885 60.8702 687.512 60.6705V65.4189C686.799 65.7041 685.958 65.9465 684.988 66.1461C684.047 66.3743 682.935 66.4883 681.652 66.4883C680.283 66.4883 679.056 66.2602 677.973 65.8039C676.918 65.3476 676.09 64.5633 675.492 63.4511C674.893 62.3104 674.593 60.7418 674.593 58.7455V47.495H671.813V44.8L675.149 42.6611L677.032 37.7417H681.438V42.7039H687.255V47.495H681.438V58.7455C681.438 59.6296 681.652 60.2998 682.079 60.7561C682.507 61.1839 683.078 61.3978 683.79 61.3978ZM688.792 42.7039H696.107L700 55.8367C700.142 56.2359 700.242 56.6637 700.299 57.12C700.385 57.5478 700.442 57.9898 700.47 58.4461C700.527 58.9024 700.57 59.3872 700.599 59.9005H700.77C700.827 59.1591 700.898 58.4604 700.984 57.8044C701.098 57.12 701.255 56.4641 701.454 55.8367L705.347 42.7039H712.534L703.379 69.0122C702.809 70.6378 702.082 71.9924 701.198 73.0761C700.314 74.1598 699.244 74.9726 697.989 75.5144C696.735 76.0563 695.266 76.3272 693.583 76.3272C692.899 76.3272 692.3 76.2844 691.787 76.1989C691.302 76.1418 690.874 76.0705 690.503 75.985V70.9372C690.788 70.9943 691.131 71.0513 691.53 71.1083C691.958 71.1654 692.4 71.1939 692.856 71.1939C693.712 71.1939 694.425 71.0085 694.995 70.6378C695.565 70.267 696.036 69.768 696.407 69.1405C696.777 68.5131 697.048 67.8144 697.219 67.0444L697.519 65.8894L688.792 42.7039Z" fill="black"/>
</svg>
